<?xml version="1.0" encoding="UTF-8"?>
<svg version="1.1" xmlns="http://www.w3.org/2000/svg" width="580" height="257">
<path d="M0 0 C191.4 0 382.8 0 580 0 C580 84.81 580 169.62 580 257 C388.6 257 197.2 257 0 257 C0 172.19 0 87.38 0 0 Z " fill="#BECCDB" transform="translate(0,0)"/>
<path d="M0 0 C2.97311566 0.01346446 5.94608269 0.0081525 8.9192152 0.00314331 C58.87717763 -0.06082145 58.87717763 -0.06082145 72.21203613 12.79522705 C76.91278476 18.19733071 80.63205256 24.26183535 84.41125488 30.3225708 C86.03568373 32.91814196 87.66086685 35.51321944 89.28894043 38.10650635 C90.35785266 39.81370958 91.42067951 41.5247404 92.47692871 43.23980713 C93.20238892 44.40612671 93.20238892 44.40612671 93.94250488 45.5960083 C94.5854248 46.63894043 94.5854248 46.63894043 95.24133301 47.70294189 C96.33163667 49.47575583 96.33163667 49.47575583 98.41125488 50.3225708 C98.59687988 48.4353833 98.59687988 48.4353833 98.78625488 46.5100708 C99.10993547 43.21931817 99.47730487 42.22349582 101.41125488 39.3225708 C109.16540728 38.17297263 117.23383752 39.14878381 124.41125488 42.3225708 C126.41125488 44.3225708 126.41125488 44.3225708 126.78625488 47.1975708 C126.41125488 50.3225708 126.41125488 50.3225708 124.87219238 52.4085083 C121.68361325 54.88851429 118.5512075 55.44753116 114.66125488 56.0725708 C113.96387207 56.19760986 113.26648926 56.32264893 112.54797363 56.45147705 C110.83818813 56.7559594 109.12499704 57.04121015 107.41125488 57.3225708 C107.72257524 60.32316912 108.25839726 61.19711472 110.63391113 63.14678955 C111.57105957 63.76167236 112.50820801 64.37655518 113.47375488 65.0100708 C121.64547237 70.73771153 127.60785884 76.53546393 130.41125488 86.3225708 C130.80734589 89.20295028 130.84242716 92.03365983 130.83117676 94.93829346 C130.8396463 95.75887741 130.84811584 96.57946136 130.85684204 97.4249115 C130.88006579 100.11231365 130.88123811 102.79913881 130.88000488 105.4866333 C130.88711261 107.36654892 130.89481251 109.24646239 130.90307617 111.12637329 C130.91648535 115.05511521 130.9181046 118.98365623 130.91223145 122.91241455 C130.90632254 127.94079497 130.9369926 132.96821414 130.97734833 137.99640846 C131.0032171 141.87410657 131.0061038 145.75157244 131.00245667 149.62934494 C131.00414703 151.48327435 131.01378154 153.33721457 131.03160095 155.19105911 C131.05378745 157.78323925 131.04409343 160.37346263 131.02648926 162.96563721 C131.0397525 163.72630997 131.05301575 164.48698273 131.06668091 165.27070618 C131.00515039 169.17861268 130.4584188 171.75250291 128.06030273 174.78237915 C124.81638905 177.89299207 122.63444553 178.4383539 118.3104248 178.51544189 C117.48914597 178.53150482 116.66786713 178.54756775 115.82170105 178.56411743 C112.07120764 178.6087471 108.32088745 178.64962557 104.57019043 178.67266846 C102.59448465 178.68922601 100.61883872 178.71651342 98.64343262 178.75469971 C95.78838164 178.80957242 92.93473147 178.83135719 90.07922363 178.8460083 C89.20090378 178.86867767 88.32258392 178.89134705 87.41764832 178.91470337 C83.15593996 178.90008256 80.29855366 178.69127074 76.89880371 175.97784424 C73.49197069 172.34130327 72.41374422 168.72407251 70.88000488 164.0647583 C68.8682627 160.30879285 67.42943776 159.80540099 63.41125488 158.3225708 C59.35494401 157.88063144 55.32017078 157.9025411 51.24304199 157.91851807 C50.02124741 157.91165482 48.79945282 157.90479156 47.54063416 157.89772034 C44.20172824 157.88258634 40.86338204 157.88094912 37.52448344 157.88666272 C34.7336109 157.88975925 31.94278861 157.88365724 29.15192324 157.87762398 C22.56799556 157.86359451 15.9841977 157.86512785 9.40026855 157.87652588 C2.61318509 157.88801609 -4.17350363 157.87391305 -10.96053511 157.8471294 C-16.79510911 157.82496856 -22.62955921 157.81833554 -28.4641723 157.82420582 C-31.94581116 157.82757447 -35.42719676 157.82516635 -38.90880013 157.80795479 C-42.78933313 157.78960651 -46.66938055 157.80367673 -50.54992676 157.82086182 C-51.70071716 157.81119385 -52.85150757 157.80152588 -54.03717041 157.79156494 C-60.18703828 157.81576111 -60.18703828 157.81576111 -65.75328064 160.17424011 C-67.96424056 162.76207175 -68.96606115 165.11490233 -70.08874512 168.3225708 C-71.78174334 173.15970858 -73.17755124 175.60960983 -77.58874512 178.3225708 C-80.81744606 178.91645066 -83.99620887 178.90711343 -87.27233887 178.88897705 C-88.20546402 178.89517563 -89.13858917 178.90137421 -90.09999084 178.90776062 C-92.06929483 178.91485004 -94.03865886 178.91170013 -96.00793457 178.89898682 C-99.01321306 178.88513089 -102.01537052 178.91919235 -105.02038574 178.95733643 C-106.93770421 178.95828779 -108.85502656 178.95642787 -110.77233887 178.95147705 C-111.66625839 178.96473526 -112.56017792 178.97799347 -113.48118591 178.99165344 C-117.81397189 178.92733597 -120.70122966 178.68818585 -124.13977051 175.90826416 C-128.00601627 171.82617774 -127.74702793 168.8203053 -127.76574707 163.43560791 C-127.77231827 162.62071899 -127.77888947 161.80583008 -127.78565979 160.96624756 C-127.80541904 158.26080231 -127.81706441 155.55541279 -127.82702637 152.84991455 C-127.83110189 151.92521425 -127.83517742 151.00051395 -127.83937645 150.04779243 C-127.86025356 145.14858345 -127.87454522 140.24940257 -127.88391113 135.35015869 C-127.89494767 130.30190568 -127.92931088 125.25409685 -127.96908283 120.20600033 C-127.99530569 116.31534539 -128.00360825 112.42479505 -128.00719261 108.53405952 C-128.01204801 106.67423076 -128.02363202 104.81440634 -128.04223061 102.95466423 C-128.16206579 90.1719174 -127.65143155 80.99347019 -118.58483887 71.2444458 C-113.74497523 66.58453795 -108.95047905 62.62172377 -102.58874512 60.3225708 C-104.31709014 56.98953172 -104.31709014 56.98953172 -107.88952637 56.5491333 C-109.89491299 56.22986777 -111.90174137 55.94750534 -113.91491699 55.6819458 C-118.94420467 54.86611674 -121.45489413 53.32425744 -124.58874512 49.3225708 C-124.77624512 46.1975708 -124.77624512 46.1975708 -123.58874512 43.3225708 C-118.05762265 39.75806965 -113.00276544 39.139465 -106.52624512 39.0100708 C-105.29776855 38.97268799 -104.06929199 38.93530518 -102.80358887 38.89678955 C-99.58874512 39.3225708 -99.58874512 39.3225708 -97.69812012 41.10772705 C-96.19051834 44.11762215 -95.90865714 46.99548581 -95.58874512 50.3225708 C-91.54427518 46.76719955 -89.15759741 42.53427067 -86.46374512 37.9475708 C-67.75400837 6.81716385 -67.75400837 6.81716385 -52.32568359 2.72186279 C-49.78898587 2.25424154 -47.26315038 1.89969944 -44.70202637 1.59210205 C-43.72091385 1.47027054 -42.73980133 1.34843903 -41.72895813 1.22291565 C-27.869332 -0.30476499 -13.92277142 -0.08547927 0 0 Z " fill="#031735" transform="translate(138.5887451171875,27.67742919921875)"/>
<path d="M0 0 C2.61149023 1.22559047 4.94397878 2.7050626 7.34765625 4.30078125 C15.8289913 9.91518615 24.10435463 12.84994336 33.97265625 14.92578125 C35.29813477 15.20736084 35.29813477 15.20736084 36.65039062 15.49462891 C55.80843933 19.2972113 75.01131484 19.27692687 94.47265625 19.23828125 C96.42202087 19.23459534 96.42202087 19.23459534 98.4107666 19.23083496 C102.19194606 19.21807803 105.97282929 19.19439056 109.75390625 19.1640625 C111.43870087 19.15271019 111.43870087 19.15271019 113.15753174 19.14112854 C125.23039294 19.00023925 137.13077946 18.15105588 149.03515625 16.11328125 C150.07446289 15.93587402 151.11376953 15.7584668 152.18457031 15.57568359 C164.73594741 13.35414877 178.71233363 10.37940136 188.50390625 1.67578125 C190.97265625 -0.07421875 190.97265625 -0.07421875 193.4453125 -0.05078125 C202.44783252 3.42778135 210.63794126 10.77041777 214.60546875 19.53125 C216.30124864 24.29314795 216.42504141 28.72136965 216.34765625 33.73828125 C216.33968018 34.69589355 216.3317041 35.65350586 216.32348633 36.64013672 C216.14554768 46.29987794 215.43029187 55.92358996 214.66015625 65.55078125 C214.60148376 66.32652496 214.54281128 67.10226868 214.48236084 67.90151978 C214.30990847 70.13244137 214.11896056 72.360978 213.921875 74.58984375 C213.81190186 75.8835791 213.70192871 77.17731445 213.58862305 78.51025391 C212.72477776 83.30026401 211.10589674 85.80518047 207.67431641 89.19848633 C202.69134446 92.38432823 197.10069374 91.6222238 191.34765625 91.61328125 C190.12691406 91.65388672 188.90617188 91.69449219 187.6484375 91.73632812 C179.60791623 91.76642633 174.72704771 90.36443204 168.26416016 85.53051758 C164.45221268 82.86101718 161.02253209 82.79928151 156.44485474 82.78533936 C155.3205304 82.77962921 154.19620605 82.77391907 153.03781128 82.76803589 C151.80861969 82.76691803 150.5794281 82.76580017 149.31298828 82.76464844 C148.01506348 82.75968353 146.71713867 82.75471863 145.37988281 82.74960327 C141.82197954 82.73650262 138.26409512 82.73003908 134.70617151 82.72559261 C132.48224161 82.72265859 130.25831682 82.71855319 128.0343895 82.71408844 C121.0729338 82.7004207 114.11148985 82.69075007 107.15002167 82.68688655 C99.11983576 82.68240507 91.08982 82.66485009 83.05968583 82.63588595 C76.8480943 82.61426029 70.63655063 82.60418183 64.42492187 82.60284543 C60.71689105 82.60179819 57.00902033 82.5959075 53.30102921 82.57802582 C49.16428568 82.55846365 45.02789796 82.5628376 40.89111328 82.56933594 C39.05339859 82.55551376 39.05339859 82.55551376 37.17855835 82.54141235 C29.60418639 82.57874349 25.21422488 83.5498695 19.03344727 88.08007812 C15.40296749 90.26931216 13.21148974 90.44111202 9 90.45703125 C7.68837891 90.4621875 6.37675781 90.46734375 5.02539062 90.47265625 C4.34951904 90.46427734 3.67364746 90.45589844 2.97729492 90.44726562 C0.91140845 90.42579426 -1.15101584 90.4471255 -3.21679688 90.47265625 C-5.18229492 90.46492188 -5.18229492 90.46492188 -7.1875 90.45703125 C-8.37996338 90.45251953 -9.57242676 90.44800781 -10.80102539 90.44335938 C-14.75854097 89.80847984 -16.32807208 88.87905615 -19.02734375 85.92578125 C-20.8294242 81.21654465 -21.41708993 76.57962806 -21.87890625 71.578125 C-21.9429364 70.8922934 -22.00696655 70.20646179 -22.07293701 69.49984741 C-22.27528199 67.28836334 -22.46538071 65.07611595 -22.65234375 62.86328125 C-22.71738098 62.10888763 -22.78241821 61.35449402 -22.84942627 60.57723999 C-23.65331504 51.13849422 -24.32758114 41.71568789 -24.40234375 32.23828125 C-24.41604004 31.38032959 -24.42973633 30.52237793 -24.44384766 29.63842773 C-24.38341473 21.57063168 -21.72321582 15.94772517 -16.26171875 9.99609375 C-5.26544432 -0.19276193 -5.26544432 -0.19276193 0 0 Z " fill="#BACADA" transform="translate(44.02734375,95.07421875)"/>
<path d="M0 0 C0.83818268 0.00060425 1.67636536 0.0012085 2.53994751 0.00183105 C13.85696357 0.02379778 25.14032258 0.24131331 36.4375 0.9375 C38.13374512 1.02994995 38.13374512 1.02994995 39.86425781 1.12426758 C49.91941997 1.85363796 60.07074189 3.64431636 67.25 11.1875 C68.93004918 13.42023311 70.45281979 15.58610611 71.9375 17.9375 C72.79163179 19.26304331 73.64579995 20.58856318 74.5 21.9140625 C74.94214844 22.60661133 75.38429687 23.29916016 75.83984375 24.01269531 C77.31719579 26.29113229 78.84044748 28.53318027 80.375 30.7734375 C81.39600263 32.28634409 82.41683969 33.79936245 83.4375 35.3125 C84.17842896 36.37742676 84.17842896 36.37742676 84.93432617 37.46386719 C88.25879651 42.46520873 88.25879651 42.46520873 88.21484375 46.07421875 C87.25 48.1875 87.25 48.1875 84.625 49.875 C78.44190141 52.09841727 71.74304677 52.48461472 65.25 53.1875 C63.7239542 53.36454774 62.19791265 53.54163209 60.671875 53.71875 C47.55137377 55.1893937 34.44704724 55.91661547 21.25 56.1875 C20.09343903 56.21260651 20.09343903 56.21260651 18.91351318 56.23822021 C-3.94106365 56.7160415 -26.5959568 56.41669105 -49.375 54.375 C-50.79357803 54.25084213 -50.79357803 54.25084213 -52.24081421 54.12417603 C-79.23165253 51.70584747 -79.23165253 51.70584747 -83.75 47.1875 C-83.54546373 42.28752237 -80.77363092 38.61165401 -78.1875 34.625 C-77.73930908 33.92262207 -77.29111816 33.22024414 -76.8293457 32.49658203 C-75.47865537 30.38752112 -74.11610541 28.28660067 -72.75 26.1875 C-72.36263672 25.5879248 -71.97527344 24.98834961 -71.57617188 24.37060547 C-69.3545166 20.9377705 -67.07745281 17.54937627 -64.75 14.1875 C-64.33621094 13.56230469 -63.92242187 12.93710937 -63.49609375 12.29296875 C-59.39037466 6.64224038 -53.22006669 3.97576206 -46.5859375 2.46875 C-31.22726868 0.06785464 -15.51120519 -0.02083051 0 0 Z " fill="#B2C2D4" transform="translate(137.75,38.8125)"/>
<path d="M0 0 C3.63 0 7.26 0 11 0 C11.33 2.64 11.66 5.28 12 8 C12.75023437 7.4946875 13.50046875 6.989375 14.2734375 6.46875 C20.89121283 2.26804626 26.08451866 -0.69712163 34 1 C36.90834236 1.99989291 39.56607836 3.09988885 42 5 C42.495 6.485 42.495 6.485 43 8 C44.34191406 7.24203125 44.34191406 7.24203125 45.7109375 6.46875 C52.76377188 2.622817 58.74463116 -0.59781332 67 1 C72.90747854 2.74319039 75.56821183 5.09744547 79 10 C81.51852594 14.71280396 81.25698862 19.25279988 81.1953125 24.45703125 C81.1924826 25.35999435 81.18965271 26.26295746 81.18673706 27.19328308 C81.17557607 30.06649234 81.15047897 32.93938555 81.125 35.8125 C81.11496493 37.76496944 81.10584 39.71744379 81.09765625 41.66992188 C81.07565008 46.44673566 81.04114831 51.22331431 81 56 C76.05 56 71.1 56 66 56 C65.67 42.47 65.34 28.94 65 15 C55.53975538 14.32470659 55.53975538 14.32470659 49 18 C48.34 18 47.68 18 47 18 C47 30.21 47 42.42 47 55 C42.38 55 37.76 55 33 55 C32.98541748 53.86457764 32.97083496 52.72915527 32.95581055 51.55932617 C32.89786324 47.34904391 32.82063059 43.1392985 32.73754883 38.92944336 C32.7042826 37.10694081 32.67625594 35.28433481 32.65356445 33.46166992 C32.62004919 30.8424875 32.56773648 28.22425452 32.51171875 25.60546875 C32.50532883 24.78974899 32.4989389 23.97402924 32.49235535 23.1335907 C32.4910459 18.93295744 32.4910459 18.93295744 30.68000793 15.28804016 C27.83270018 13.10504646 25.45749713 13.58978848 22 14 C18.72689447 15.90356987 18.72689447 15.90356987 16 18 C15.34 18 14.68 18 14 18 C14 30.54 14 43.08 14 56 C9.38 56 4.76 56 0 56 C0 37.52 0 19.04 0 0 Z " fill="#051836" transform="translate(415,82)"/>
<path d="M0 0 C6.744375 -0.0825 13.48875 -0.165 20.4375 -0.25 C22.54825928 -0.28641602 24.65901855 -0.32283203 26.83374023 -0.36035156 C28.53368111 -0.37204967 30.23363331 -0.38223883 31.93359375 -0.390625 C33.2248114 -0.4213208 33.2248114 -0.4213208 34.54211426 -0.45263672 C40.75292794 -0.45616208 45.61589728 0.84670849 51 4 C52.9375 6 52.9375 6 54 8 C54.37125 8.66 54.7425 9.32 55.125 10 C57.71192791 15.91297808 58.2476465 23.16009316 56.24609375 29.3203125 C55.27881899 31.31555377 54.21248822 33.14510575 53 35 C52.484375 35.86625 51.96875 36.7325 51.4375 37.625 C44.10528684 44.76920769 36.03175675 46.96498514 26 47 C24.54815522 42.46298506 23.76490804 38.81938524 24 34 C25.58298026 33.5196682 27.16639978 33.04078388 28.75 32.5625 C29.63171875 32.29566406 30.5134375 32.02882812 31.421875 31.75390625 C34 31 34 31 36.203125 30.65234375 C38.15769528 30.14216355 38.15769528 30.14216355 39.19921875 28.22265625 C40.02549916 25.92922429 40.50571762 23.85494517 40.8125 21.4375 C40.92207031 20.67308594 41.03164063 19.90867187 41.14453125 19.12109375 C41.20248218 16.54508204 41.20248218 16.54508204 38 14 C30.41 13.67 22.82 13.34 15 13 C15 33.13 15 53.26 15 74 C10.05 74 5.1 74 0 74 C0 49.58 0 25.16 0 0 Z " fill="#081A38" transform="translate(287,64)"/>
<path d="M0 0 C1.40668945 -0.0309375 1.40668945 -0.0309375 2.84179688 -0.0625 C9.82410506 -0.10186467 14.13526366 0.92978514 19.4375 5.75 C26.52365495 13.6235055 24.6875 20.18794895 24.6875 31.25 C12.8075 31.25 0.9275 31.25 -11.3125 31.25 C-9.09855021 37.92148826 -9.09855021 37.92148826 -5.9296875 40.17578125 C-0.44103587 41.80578038 4.87330187 41.56271373 10.5625 41.4375 C11.7278125 41.42396484 12.893125 41.41042969 14.09375 41.39648438 C16.95881118 41.36125821 19.82291377 41.31199715 22.6875 41.25 C22.71437279 43.06242052 22.73383715 44.87495233 22.75 46.6875 C22.76160156 47.69683594 22.77320313 48.70617187 22.78515625 49.74609375 C22.6875 52.25 22.6875 52.25 21.6875 53.25 C17.68282835 53.51761793 13.67422383 53.52140414 9.66137695 53.54516602 C7.65748046 53.56222352 5.65386993 53.60608764 3.65039062 53.65039062 C-5.07215102 53.7075732 -10.7399771 53.17508603 -17.51953125 47.35546875 C-24.31141828 39.24155992 -25.9153561 33.69361486 -25.65234375 23.046875 C-24.95844776 15.29438187 -23.08955733 9.43759911 -17.25 4.125 C-11.76437534 -0.27613457 -6.75483366 0.03668613 0 0 Z " fill="#051836" transform="translate(531.3125,83.75)"/>
<path d="M0 0 C1.02867187 -0.02320313 1.02867187 -0.02320313 2.078125 -0.046875 C7.18254311 -0.00790998 10.07808305 1.31271941 14 4.5 C18.95151742 10.62424524 18.79151619 16.84545926 18 24.5 C16.85063902 29.60139448 14.40272421 32.66967729 10 35.5 C4.42833152 38.59537138 -1.60743225 37.90551996 -7.6875 36.875 C-12.81014265 34.74862003 -15.85546962 31.73703666 -18.375 26.8125 C-19.81834043 19.16279574 -20.07456186 12.90366713 -15.6796875 6.25390625 C-10.95685761 1.32239317 -6.70407027 -0.15121963 0 0 Z " fill="#071935" transform="translate(502,172.5)"/>
<path d="M0 0 C3.96 0 7.92 0 12 0 C12.36351562 1.00417969 12.72703125 2.00835937 13.1015625 3.04296875 C17.12374955 14.03073586 21.73859942 24.53928026 27 35 C27.21615967 34.45698242 27.43231934 33.91396484 27.6550293 33.35449219 C35.25064733 14.28575867 35.25064733 14.28575867 39.08984375 5.21484375 C39.79348186 3.50255701 40.41459138 1.75622585 41 0 C44.96 0 48.92 0 53 0 C51.74774723 3.90086393 50.34911225 7.64617023 48.6796875 11.38671875 C48.23028809 12.39927734 47.78088867 13.41183594 47.31787109 14.45507812 C46.84172363 15.52177734 46.36557617 16.58847656 45.875 17.6875 C41.93772616 26.55839778 38.07667336 35.45282622 34.37451172 44.42456055 C32.10210201 49.89789799 32.10210201 49.89789799 31 51 C27.99996555 51.14177857 25.00242765 51.04228771 22 51 C17.52869585 41.49361399 13.31885047 31.89076758 9.19360352 22.23046875 C8.17372207 19.84274339 7.15052488 17.45645791 6.12695312 15.0703125 C5.47376568 13.54435328 4.82076379 12.01831463 4.16796875 10.4921875 C3.86384567 9.78287079 3.5597226 9.07355408 3.24638367 8.34274292 C2.06878073 5.58168109 0.94972573 2.8491772 0 0 Z " fill="#081935" transform="translate(280,159)"/>
<path d="M0 0 C3.63 0 7.26 0 11 0 C11.33 1.98 11.66 3.96 12 6 C12.556875 5.6390625 13.11375 5.278125 13.6875 4.90625 C19.14096482 1.58995383 22.62961443 0.42087404 29 1 C29 4.63 29 8.26 29 12 C27.5975 12.45375 26.195 12.9075 24.75 13.375 C21.61234773 14.39012279 18.98503412 15.50748294 16 17 C15.67 29.54 15.34 42.08 15 55 C10.05 55 5.1 55 0 55 C0 36.85 0 18.7 0 0 Z " fill="#0A1D3A" transform="translate(352,83)"/>
<path d="M0 0 C3.30180503 2.45518836 5.59744189 5.13238379 7.4375 8.8125 C7.4375 12.7725 7.4375 16.7325 7.4375 20.8125 C-0.4825 20.8125 -8.4025 20.8125 -16.5625 20.8125 C-14.23998574 25.69745525 -14.23998574 25.69745525 -11.5625 26.8125 C-8.67879667 26.88444869 -5.82010336 26.90541708 -2.9375 26.875 C-2.13570313 26.87048828 -1.33390625 26.86597656 -0.5078125 26.86132812 C1.47399006 26.84953168 3.45575433 26.83159605 5.4375 26.8125 C5.4375 29.4525 5.4375 32.0925 5.4375 34.8125 C2.06279496 34.92939626 -1.3113843 34.99997934 -4.6875 35.0625 C-5.63882812 35.09601563 -6.59015625 35.12953125 -7.5703125 35.1640625 C-13.43786758 35.24555632 -16.97207204 34.86458934 -21.5625 30.8125 C-26.67946797 24.03597485 -27.50175828 18.14973644 -26.5625 9.8125 C-22.09900182 -1.85556578 -11.13714145 -3.71238048 0 0 Z " fill="#0E1F3B" transform="translate(357.5625,174.1875)"/>
<path d="M0 0 C4.31613863 0.5901223 7.33093554 2.14059219 11.05859375 4.359375 C11.63636566 4.7004277 12.21413757 5.04148041 12.80941772 5.39286804 C14.68966961 6.50496154 16.56365644 7.62714805 18.4375 8.75 C19.73296589 9.52020359 21.02878603 10.28981165 22.32495117 11.05883789 C24.29525582 12.22839765 26.26501144 13.39882438 28.23292542 14.57240295 C32.40684008 17.06108515 36.59786751 19.51654683 40.8046875 21.94921875 C41.82506104 22.54186523 42.84543457 23.13451172 43.89672852 23.74511719 C45.81100608 24.85620921 47.72808429 25.9624928 49.64819336 27.06347656 C50.49260986 27.55686523 51.33702637 28.05025391 52.20703125 28.55859375 C52.9441333 28.98454834 53.68123535 29.41050293 54.44067383 29.84936523 C55.21254028 30.41892944 55.21254028 30.41892944 56 31 C56 31.66 56 32.32 56 33 C44.95379477 33.17182986 34.00819428 31.48861679 23.1484375 29.5546875 C20.73852194 29.13011181 18.33328865 28.74597578 15.9140625 28.3828125 C14.48426787 28.15170345 13.0545793 27.91993731 11.625 27.6875 C10.62533203 27.5474353 10.62533203 27.5474353 9.60546875 27.40454102 C3.78099065 26.41353009 0.11720138 23.88709279 -3.375 19.125 C-5.42574735 12.15245903 -3.09703232 6.19406464 0 0 Z " fill="#061937" transform="translate(32,107)"/>
<path d="M0 0 C2.4375 0.875 2.4375 0.875 3.56640625 2.49609375 C4.72812501 5.66867997 4.77648877 8.43824821 4.8125 11.8125 C4.84085938 13.01777344 4.86921875 14.22304687 4.8984375 15.46484375 C4.33776665 19.61285773 3.53103552 21.0693487 0.4375 23.875 C-4.65146714 26.54122242 -10.17874751 27.55542063 -15.8125 28.375 C-16.59665283 28.49464111 -17.38080566 28.61428223 -18.1887207 28.73754883 C-30.26210413 30.50598293 -42.42387761 31.65630478 -54.5625 32.875 C-53.34934721 29.23554162 -52.58887241 29.04252858 -49.3125 27.265625 C-48.40532227 26.76522705 -47.49814453 26.2648291 -46.56347656 25.74926758 C-45.5731543 25.21325928 -44.58283203 24.67725098 -43.5625 24.125 C-34.53993115 19.14107067 -25.63997051 14.00721249 -16.8125 8.6875 C-15.73613281 8.04006836 -14.65976563 7.39263672 -13.55078125 6.72558594 C-2.22272381 -0.10842555 -2.22272381 -0.10842555 0 0 Z " fill="#041835" transform="translate(246.5625,107.125)"/>
<path d="M0 0 C4.95 0 9.9 0 15 0 C15 18.15 15 36.3 15 55 C10.05 55 5.1 55 0 55 C0 36.85 0 18.7 0 0 Z " fill="#0F213D" transform="translate(388,83)"/>
<path d="M0 0 C2.97 0 5.94 0 9 0 C9.02505615 0.74161377 9.0501123 1.48322754 9.07592773 2.24731445 C9.19186132 5.60255328 9.31459985 8.95750944 9.4375 12.3125 C9.47681641 13.47974609 9.51613281 14.64699219 9.55664062 15.84960938 C9.61948242 17.52700195 9.61948242 17.52700195 9.68359375 19.23828125 C9.72025146 20.26993408 9.75690918 21.30158691 9.79467773 22.36450195 C9.90161242 25.10748258 9.90161242 25.10748258 11 28 C12.6256807 27.69106068 14.25052748 27.3777305 15.875 27.0625 C16.77992188 26.88847656 17.68484375 26.71445313 18.6171875 26.53515625 C20.99956317 26.10036299 20.99956317 26.10036299 23 25 C23.33 16.75 23.66 8.5 24 0 C26.97 0 29.94 0 33 0 C33 12.21 33 24.42 33 37 C30.36 37 27.72 37 25 37 C25 35.35 25 33.7 25 32 C24.46632813 32.28875 23.93265625 32.5775 23.3828125 32.875 C17.64841525 35.73227752 12.41239997 37.32052914 6 36 C2.65374976 33.47323961 1.32022153 31.96066458 0 28 C-0.0833804 25.86205475 -0.10733747 23.72157991 -0.09765625 21.58203125 C-0.09443359 20.32841797 -0.09121094 19.07480469 -0.08789062 17.78320312 C-0.07951172 16.47287109 -0.07113281 15.16253906 -0.0625 13.8125 C-0.05748317 12.47721519 -0.05292059 11.14192859 -0.04882812 9.80664062 C-0.03702695 6.53771527 -0.02056297 3.26888009 0 0 Z " fill="#031533" transform="translate(425,173)"/>
<path d="M0 0 C0.76828125 -0.01224609 1.5365625 -0.02449219 2.328125 -0.03710938 C9.30966361 -0.05522755 9.30966361 -0.05522755 12.625 2.1875 C12.625 4.4975 12.625 6.8075 12.625 9.1875 C11.861875 9.0225 11.09875 8.8575 10.3125 8.6875 C1.78368343 7.41062799 1.78368343 7.41062799 -6.375 9.1875 C-6.045 10.8375 -5.715 12.4875 -5.375 14.1875 C-4.43398438 14.20167969 -3.49296875 14.21585938 -2.5234375 14.23046875 C8.93477631 14.66934443 8.93477631 14.66934443 12.5 17.1875 C15.01959812 20.74457969 15.33401927 22.77000871 15.0078125 27.0390625 C14.45839231 30.12254316 13.74932548 31.85759464 11.625 34.1875 C5.28307958 38.27451538 -2.04253829 37.85487536 -9.375 37.1875 C-12.3046875 36.16796875 -12.3046875 36.16796875 -14.375 35.1875 C-14.375 32.5475 -14.375 29.9075 -14.375 27.1875 C-13.69050781 27.35121094 -13.00601563 27.51492187 -12.30078125 27.68359375 C-9.0006722 28.25197034 -5.90945931 28.28380767 -2.5625 28.25 C-0.82033203 28.23646484 -0.82033203 28.23646484 0.95703125 28.22265625 C1.83746094 28.21105469 2.71789062 28.19945312 3.625 28.1875 C3.955 26.5375 4.285 24.8875 4.625 23.1875 C3.08779297 23.16623047 3.08779297 23.16623047 1.51953125 23.14453125 C0.15881029 23.09760984 -1.20186541 23.04936256 -2.5625 23 C-3.23603516 22.99419922 -3.90957031 22.98839844 -4.60351562 22.98242188 C-8.37977355 22.81663494 -10.27710642 22.26075811 -13.32421875 19.98046875 C-16.19752562 16.06729844 -16.07811664 13.49882964 -15.875 8.7890625 C-15.15049347 5.01936449 -13.4427364 3.37874028 -10.375 1.1875 C-7.12230549 -0.43884726 -3.570215 0.00296529 0 0 Z " fill="#071734" transform="translate(541.375,172.8125)"/>
<path d="M0 0 C1.20785156 0.00644531 2.41570312 0.01289063 3.66015625 0.01953125 C6.28808061 0.15421629 8.44398479 0.4102197 10.9375 1.1875 C10.9375 3.8275 10.9375 6.4675 10.9375 9.1875 C9.27460938 9.11789063 9.27460938 9.11789063 7.578125 9.046875 C6.11461032 9.00934898 4.65106644 8.97294971 3.1875 8.9375 C2.09308594 8.88722656 2.09308594 8.88722656 0.9765625 8.8359375 C-2.53236572 8.77213881 -4.63528735 8.88858549 -7.546875 10.92578125 C-10.01175773 14.60404697 -9.83861309 17.91887801 -9.0625 22.1875 C-7.26856332 25.05779869 -6.07986724 26.67881638 -3.0625 28.1875 C-0.68847499 28.25866382 1.68750677 28.27159085 4.0625 28.25 C5.34382813 28.24097656 6.62515625 28.23195312 7.9453125 28.22265625 C9.42644531 28.20525391 9.42644531 28.20525391 10.9375 28.1875 C10.9375 30.4975 10.9375 32.8075 10.9375 35.1875 C4.16962037 37.964066 -2.00366995 38.28150035 -8.8125 35.5625 C-13.08496784 33.46361283 -15.39400498 31.10685206 -18.0625 27.1875 C-19.90711204 21.65366387 -19.84348481 15.93377035 -19.0625 10.1875 C-16.82353216 5.94292154 -14.01279378 3.19913198 -9.765625 0.99609375 C-6.41289789 -0.00681739 -3.49582799 -0.04112739 0 0 Z " fill="#081A36" transform="translate(408.0625,172.8125)"/>
<path d="M0 0 C2.97 0 5.94 0 9 0 C9 16.5 9 33 9 50 C6.03 50 3.06 50 0 50 C0 33.5 0 17 0 0 Z " fill="#011331" transform="translate(467,160)"/>
<path d="M0 0 C3.3 0 6.6 0 10 0 C10 12.21 10 24.42 10 37 C6.7 37 3.4 37 0 37 C0 24.79 0 12.58 0 0 Z " fill="#001330" transform="translate(372,173)"/>
<path d="M0 0 C2.9375 1.75 2.9375 1.75 5 5 C5.8566272 10.44033414 5.82287909 15.2170953 3.5 20.25 C0.6355333 22.25512669 -1.52713749 22.73572005 -5.02734375 22.4609375 C-7 22 -7 22 -10 20.25 C-13.04282603 15.30540771 -12.96001888 10.65084285 -12 5 C-8.81223683 -0.02314196 -5.81679899 -1.03871411 0 0 Z " fill="#C3D0DF" transform="translate(505,180)"/>
<path d="M0 0 C3.16115776 1.36983503 3.9927092 1.9890638 6 5 C6.27064779 9.34660356 6.08632079 13.64080016 6 18 C-1.92 18 -9.84 18 -18 18 C-16.68 17.01 -15.36 16.02 -14 15 C-15.32 14.34 -16.64 13.68 -18 13 C-12.72 13 -7.44 13 -2 13 C-3.31297122 7.01461763 -3.31297122 7.01461763 -7 5 C-8.9896995 4.60986284 -10.99019869 4.26797351 -13 4 C-13 3.67 -13 3.34 -13 3 C-6.375 2.875 -6.375 2.875 -3 4 C-3 3.34 -3 2.68 -3 2 C-2.01 1.34 -1.02 0.68 0 0 Z " fill="#02112D" transform="translate(358,176)"/>
<path d="M0 0 C3.63 0 7.26 0 11 0 C11 2.31 11 4.62 11 7 C10.67 7 10.34 7 10 7 C10 5.35 10 3.7 10 2 C7.36 2 4.72 2 2 2 C2 19.16 2 36.32 2 54 C5.3 54 8.6 54 12 54 C12 42.12 12 30.24 12 18 C12.33 18 12.66 18 13 18 C13.33 30.54 13.66 43.08 14 56 C9.38 56 4.76 56 0 56 C0 37.52 0 19.04 0 0 Z " fill="#1C2B44" transform="translate(415,82)"/>
<path d="M0 0 C3.0625 1.0625 3.0625 1.0625 5 3 C5.33 5.31 5.66 7.62 6 10 C-1.26 10 -8.52 10 -16 10 C-14.08262768 0.41313841 -8.96344004 -1.30992802 0 0 Z " fill="#C1D0DF" transform="translate(536,95)"/>
<path d="M0 0 C4.29 0 8.58 0 13 0 C13 3.3 13 6.6 13 10 C8.71 10 4.42 10 0 10 C0 6.7 0 3.4 0 0 Z " fill="#00102C" transform="translate(389,64)"/>
<path d="M0 0 C0.33 0 0.66 0 1 0 C1.33 11.55 1.66 23.1 2 35 C3.98 35 5.96 35 8 35 C8 23.45 8 11.9 8 0 C8.66 0 9.32 0 10 0 C10 12.21 10 24.42 10 37 C6.7 37 3.4 37 0 37 C0 24.79 0 12.58 0 0 Z " fill="#203048" transform="translate(372,173)"/>
<path d="M0 0 C0 0.33 0 0.66 0 1 C11.55 1.33 23.1 1.66 35 2 C35 2.33 35 2.66 35 3 C34.31698822 3.01030746 33.63397644 3.02061493 32.93026733 3.03123474 C26.43002567 3.13003194 19.92985612 3.23264728 13.429739 3.33933926 C10.0895775 3.39403519 6.74941071 3.44693545 3.40917969 3.49731445 C-0.44863585 3.55574434 -4.30634208 3.61922094 -8.1640625 3.68359375 C-9.33860992 3.70030624 -10.51315735 3.71701874 -11.72329712 3.73423767 C-19.84248699 3.87627383 -27.90620576 4.34765819 -36 5 C-36 4.34 -36 3.68 -36 3 C-23.91909071 1.03102649 -12.25713519 -0.50836045 0 0 Z " fill="#90A3B8" transform="translate(129,25)"/>
<path d="M0 0 C0 2.64 0 5.28 0 8 C-5.61 8 -11.22 8 -17 8 C-16.01 7.34 -15.02 6.68 -14 6 C-14 4.68 -14 3.36 -14 2 C-12.04200486 1.66468585 -10.08359226 1.33180857 -8.125 1 C-6.48917969 0.7215625 -6.48917969 0.7215625 -4.8203125 0.4375 C-2 0 -2 0 0 0 Z " fill="#031331" transform="translate(363,201)"/>
<path d="M0 0 C1.17369141 -0.02513672 1.17369141 -0.02513672 2.37109375 -0.05078125 C4.5625 0.3125 4.5625 0.3125 6.34765625 1.58203125 C7.5625 3.3125 7.5625 3.3125 7.5625 7.3125 C2.6125 7.3125 -2.3375 7.3125 -7.4375 7.3125 C-6.26821859 1.46609293 -5.7515132 0.02833258 0 0 Z " fill="#C3CEDD" transform="translate(348.4375,180.6875)"/>
<path d="M0 0 C5.28 0.33 10.56 0.66 16 1 C15.01 1.33 14.02 1.66 13 2 C13 2.66 13 3.32 13 4 C15.31 4 17.62 4 20 4 C20 4.99 20 5.98 20 7 C17.60293877 7.10854617 15.21084162 7.18753157 12.8125 7.25 C12.13896484 7.28351563 11.46542969 7.31703125 10.77148438 7.3515625 C7.1351346 7.42251567 5.1387089 7.08485721 2.01171875 5.171875 C0 3 0 3 0 0 Z " fill="#B6C3D2" transform="translate(341,195)"/>
<path d="M0 0 C5.64166991 -0.04940499 11.28321413 -0.08572193 16.92504883 -0.10986328 C18.84466749 -0.11992639 20.76427081 -0.13357816 22.68383789 -0.15087891 C25.44160752 -0.17511364 28.19917464 -0.18647992 30.95703125 -0.1953125 C32.24623222 -0.21079636 32.24623222 -0.21079636 33.56147766 -0.22659302 C34.36208115 -0.22674408 35.16268463 -0.22689514 35.98754883 -0.22705078 C36.6914827 -0.231492 37.39541656 -0.23593323 38.12068176 -0.24050903 C40 0 40 0 43 2 C40.25104407 2.77521671 37.81884931 3.12278847 34.96582031 3.11352539 C33.79505951 3.11341209 33.79505951 3.11341209 32.60064697 3.11329651 C31.76821472 3.10813522 30.93578247 3.10297394 30.078125 3.09765625 C29.21813904 3.0962413 28.35815308 3.09482635 27.47210693 3.09336853 C24.73136891 3.08778097 21.99071324 3.07523075 19.25 3.0625 C17.3893241 3.05748339 15.52864691 3.05292077 13.66796875 3.04882812 C9.11194754 3.03781561 4.55598772 3.02055951 0 3 C0 2.01 0 1.02 0 0 Z " fill="#A9BBCD" transform="translate(287,61)"/>
<path d="M0 0 C2.6015625 -0.29296875 2.6015625 -0.29296875 5.625 -0.1875 C7.12933594 -0.14689453 7.12933594 -0.14689453 8.6640625 -0.10546875 C9.43492187 -0.07066406 10.20578125 -0.03585938 11 0 C9.23603205 3.78220155 7.63470989 5.7875679 4 8 C1.23853229 8.32789227 -1.20333676 8.18960429 -4 8 C-2.87548273 5.0280615 -1.77706209 2.66559313 0 0 Z " fill="#0B1731" transform="translate(375,159)"/>
<path d="M0 0 C12.87 0.495 12.87 0.495 26 1 C26 1.33 26 1.66 26 2 C25.01257813 2.03738281 24.02515625 2.07476562 23.0078125 2.11328125 C21.08582031 2.21189453 21.08582031 2.21189453 19.125 2.3125 C17.84882812 2.37050781 16.57265625 2.42851562 15.2578125 2.48828125 C14.18273437 2.65714844 13.10765625 2.82601562 12 3 C11.01 4.485 11.01 4.485 10 6 C7.25 5.8125 7.25 5.8125 4 5 C2.68 3.35 1.36 1.7 0 0 Z " fill="#A3B2C4" transform="translate(521,136)"/>
<path d="M0 0 C0.99 0 1.98 0 3 0 C3 0.99 3 1.98 3 3 C4.32 2.34 5.64 1.68 7 1 C6.50168276 4.68754757 5.89932357 6.60490662 3 9 C2.34 7.35 1.68 5.7 1 4 C0.67 6.97 0.34 9.94 0 13 C-0.33 13 -0.66 13 -1 13 C-1.02696365 11.20841511 -1.04637917 9.41671527 -1.0625 7.625 C-1.07410156 6.62726563 -1.08570313 5.62953125 -1.09765625 4.6015625 C-1 2 -1 2 0 0 Z " fill="#1C304B" transform="translate(484,183)"/>
<path d="M0 0 C3.375 0.25 3.375 0.25 7 1 C8.4375 3.0625 8.4375 3.0625 9 5 C6.69 6.32 4.38 7.64 2 9 C2 5.88742431 2.17361624 3.89234315 3 1 C2.01 0.67 1.02 0.34 0 0 Z " fill="#9EAEC5" transform="translate(27,83)"/>
<path d="M0 0 C1.65 0 3.3 0 5 0 C5 3.63 5 7.26 5 11 C3.35 11 1.7 11 0 11 C0.99 10.67 1.98 10.34 3 10 C3 7.36 3 4.72 3 2 C1.35 2 -0.3 2 -2 2 C-1.34 1.34 -0.68 0.68 0 0 Z " fill="#1E2D44" transform="translate(549,125)"/>
<path d="M0 0 C0.33 0.66 0.66 1.32 1 2 C1.66 2 2.32 2 3 2 C3.33 1.34 3.66 0.68 4 0 C4.78375 0.33 5.5675 0.66 6.375 1 C8.84332497 2.11866511 8.84332497 2.11866511 11 2 C11 2.66 11 3.32 11 4 C6.05 3.67 1.1 3.34 -4 3 C-2.68 2.67 -1.36 2.34 0 2 C0 1.34 0 0.68 0 0 Z " fill="#9FB0C6" transform="translate(178,26)"/>
<path d="M0 0 C0.61875 0.474375 1.2375 0.94875 1.875 1.4375 C3.90705546 3.02417441 3.90705546 3.02417441 6 4 C5.67 5.32 5.34 6.64 5 8 C2.00675737 6.9024777 1.15389099 6.32317108 -0.25 3.375 C-0.4975 2.59125 -0.745 1.8075 -1 1 C-0.67 0.67 -0.34 0.34 0 0 Z " fill="#A5B8CC" transform="translate(232,70)"/>
<path d="M0 0 C0.66 0.99 1.32 1.98 2 3 C1.67 3.66 1.34 4.32 1 5 C0.34 5 -0.32 5 -1 5 C-1 5.66 -1 6.32 -1 7 C-1.66 7 -2.32 7 -3 7 C-3 9.64 -3 12.28 -3 15 C-3.33 15 -3.66 15 -4 15 C-4.02712066 13.56260487 -4.04645067 12.12506137 -4.0625 10.6875 C-4.07410156 9.88699219 -4.08570313 9.08648437 -4.09765625 8.26171875 C-4 6 -4 6 -3 3 C-2.34 3 -1.68 3 -1 3 C-0.67 2.01 -0.34 1.02 0 0 Z " fill="#9CADBE" transform="translate(255,109)"/>
<path d="M0 0 C0.33 0 0.66 0 1 0 C1.08333357 4.8333472 0.95261487 9.23692563 0 14 C-1.76462683 10.91190305 -2 9.76687864 -2 6 C-1.34 6 -0.68 6 0 6 C0 4.02 0 2.04 0 0 Z " fill="#92A5B7" transform="translate(258,148)"/>
<path d="M0 0 C4.62 0 9.24 0 14 0 C12.68 1.32 11.36 2.64 10 4 C10 3.01 10 2.02 10 1 C6.7 1 3.4 1 0 1 C0 0.67 0 0.34 0 0 Z " fill="#8D9FB3" transform="translate(102,40)"/>
<path d="M0 0 C1.9375 0.8125 1.9375 0.8125 4 2 C5 5 5 5 4 8 C3.34 8 2.68 8 2 8 C1.34 5.36 0.68 2.72 0 0 Z " fill="#A6B7CC" transform="translate(40,68)"/>
<path d="M0 0 C0.8125 1.6875 0.8125 1.6875 1 4 C-1.4375 6.75 -1.4375 6.75 -4 9 C-4.66 8.34 -5.32 7.68 -6 7 C-5.195625 6.401875 -4.39125 5.80375 -3.5625 5.1875 C-0.77672016 3.19052724 -0.77672016 3.19052724 0 0 Z " fill="#1D2D46" transform="translate(256,177)"/>
<path d="M0 0 C0.99 0.33 1.98 0.66 3 1 C1.68 3.31 0.36 5.62 -1 8 C-1.33 8 -1.66 8 -2 8 C-2.20086443 4.28400809 -2.1519437 3.22791555 0 0 Z " fill="#A4B6CB" transform="translate(63,44)"/>
<path d="M0 0 C1.98 0 3.96 0 6 0 C5.34 1.32 4.68 2.64 4 4 C3.01 4 2.02 4 1 4 C0.67 2.68 0.34 1.36 0 0 Z " fill="#C5D4E6" transform="translate(341,195)"/>
<path d="M0 0 C3.63 0 7.26 0 11 0 C10.34 1.32 9.68 2.64 9 4 C8.67 3.01 8.34 2.02 8 1 C5.36 1 2.72 1 0 1 C0 0.67 0 0.34 0 0 Z " fill="#1E293F" transform="translate(375,159)"/>
</svg>
